<svg width="32" height="32" viewBox="0 0 32 32" fill="none" xmlns="http://www.w3.org/2000/svg">
<rect width="32" height="32" rx="16" fill="#F7F7FF"/>
<path d="M13.6 10H11.0667C10.6933 10 10.5066 10 10.364 10.0727C10.2386 10.1366 10.1366 10.2386 10.0727 10.364C10 10.5066 10 10.6933 10 11.0667V13.6C10 13.9734 10 14.1601 10.0727 14.3027C10.1366 14.4281 10.2386 14.5301 10.364 14.594C10.5066 14.6667 10.6933 14.6667 11.0667 14.6667H13.6C13.9734 14.6667 14.1601 14.6667 14.3027 14.594C14.4281 14.5301 14.5301 14.4281 14.594 14.3027C14.6667 14.1601 14.6667 13.9734 14.6667 13.6V11.0667C14.6667 10.6933 14.6667 10.5066 14.594 10.364C14.5301 10.2386 14.4281 10.1366 14.3027 10.0727C14.1601 10 13.9734 10 13.6 10Z" stroke="#4F43DD" stroke-width="1.33" stroke-linecap="round" stroke-linejoin="round"/>
<path d="M20.9333 10H18.4C18.0266 10 17.8399 10 17.6973 10.0727C17.5719 10.1366 17.4699 10.2386 17.406 10.364C17.3333 10.5066 17.3333 10.6933 17.3333 11.0667V13.6C17.3333 13.9734 17.3333 14.1601 17.406 14.3027C17.4699 14.4281 17.5719 14.5301 17.6973 14.594C17.8399 14.6667 18.0266 14.6667 18.4 14.6667H20.9333C21.3067 14.6667 21.4934 14.6667 21.636 14.594C21.7614 14.5301 21.8634 14.4281 21.9273 14.3027C22 14.1601 22 13.9734 22 13.6V11.0667C22 10.6933 22 10.5066 21.9273 10.364C21.8634 10.2386 21.7614 10.1366 21.636 10.0727C21.4934 10 21.3067 10 20.9333 10Z" stroke="#4F43DD" stroke-width="1.33" stroke-linecap="round" stroke-linejoin="round"/>
<path d="M20.9333 17.3333H18.4C18.0266 17.3333 17.8399 17.3333 17.6973 17.406C17.5719 17.4699 17.4699 17.5719 17.406 17.6973C17.3333 17.8399 17.3333 18.0266 17.3333 18.4V20.9333C17.3333 21.3067 17.3333 21.4934 17.406 21.636C17.4699 21.7614 17.5719 21.8634 17.6973 21.9273C17.8399 22 18.0266 22 18.4 22H20.9333C21.3067 22 21.4934 22 21.636 21.9273C21.7614 21.8634 21.8634 21.7614 21.9273 21.636C22 21.4934 22 21.3067 22 20.9333V18.4C22 18.0266 22 17.8399 21.9273 17.6973C21.8634 17.5719 21.7614 17.4699 21.636 17.406C21.4934 17.3333 21.3067 17.3333 20.9333 17.3333Z" stroke="#4F43DD" stroke-width="1.33" stroke-linecap="round" stroke-linejoin="round"/>
<path d="M13.6 17.3333H11.0667C10.6933 17.3333 10.5066 17.3333 10.364 17.406C10.2386 17.4699 10.1366 17.5719 10.0727 17.6973C10 17.8399 10 18.0266 10 18.4V20.9333C10 21.3067 10 21.4934 10.0727 21.636C10.1366 21.7614 10.2386 21.8634 10.364 21.9273C10.5066 22 10.6933 22 11.0667 22H13.6C13.9734 22 14.1601 22 14.3027 21.9273C14.4281 21.8634 14.5301 21.7614 14.594 21.636C14.6667 21.4934 14.6667 21.3067 14.6667 20.9333V18.4C14.6667 18.0266 14.6667 17.8399 14.594 17.6973C14.5301 17.5719 14.4281 17.4699 14.3027 17.406C14.1601 17.3333 13.9734 17.3333 13.6 17.3333Z" stroke="#4F43DD" stroke-width="1.33" stroke-linecap="round" stroke-linejoin="round"/>
</svg>
